PathFileType	4	(X/Y/Z)	C:/Users/beibeiliu/ov580/test_trc\sequence.29_training_dense_left.trc
DataRate	CameraRate	NumFrames	NumMarkers	Units	OrigDataRate	OrigDataStartFrame	OrigNumFrames
120	120	12	19	mm	120	1	78
Frame#	Time	ThumbCMC			ThumbMCP			ThumbIP			ThumbTip			IndexMCP			IndexPIP			IndexTip			MiddleMCP			MiddlePIP			MiddleTip			RingMCP			RingPIP			RingTip			PinkyMCP			PinkyPIP			PinkyTip			BackHand1			BackHand2			BackHand3	
		X0	Y0	Z0	X1	Y1	Z1	X2	Y2	Z2	X3	Y3	Z3	X4	Y4	Z4	X5	Y5	Z5	X6	Y6	Z6	X7	Y7	Z7	X8	Y8	Z8	X9	Y9	Z9	X10	Y10	Z10	X11	Y11	Z11	X12	Y12	Z12	X13	Y13	Z13	X14	Y14	Z14	X15	Y15	Z15	X16	Y16	Z16	X17	Y17	Z17	X18	Y18	Z18	
0	0	-123.271	43.6341	39.0983	-110.644	24.972	20.4158	-100.966	14.2655	0.230203	-100.039	0.803323	-21.5891	-133.38	38.5487	-28.727	-127.175	23.1075	-47.4839	-121.456	-2.9181	-61.6887	-152.994	34.6948	-35.2831	-152.268	19.5109	-57.6068	-150.627	-4.14067	-72.5619	-170.235	29.8597	-30.5406	-170.598	19.151	-47.8581	-168.871	2.64798	-63.7456	-190.249	23.1698	-16.2397	-190.142	14.0576	-29.857	-186.084	2.49856	-48.6002	-173.629	51.8498	10.9214	-175.47	59.2008	41.1199	-149.842	61.8688	24.1371	
1	0.00833333	-127.856	43.684	35.8074	-112.717	26.2288	18.1042	-109.421	15.098	-0.820399	-103.835	0.855676	-20.9452	-137.18	38.0523	-31.0999	-131.888	20.2311	-51.3024	-126.699	-3.72352	-62.4567	-155.796	33.8373	-38.4419	-155.235	21.5113	-56.4832	-154.56	-3.7176	-73.576	-178.465	29.9557	-29.0818	-173.484	18.5473	-48.4356	-171.833	-0.588826	-68.0974	-190.978	24.7446	-13.1457	-193.475	10.6765	-34.3891	-192.656	2.3639	-48.2698	-179.179	51.1725	13.9976	-177.639	60.4098	37.4491	-152.059	61.4232	21.5288	
2	0.0166667	-129.967	43.0216	37.3125	-116.413	26.1771	20.3921	-108.15	13.0088	-4.06863	-106.403	2.39484	-17.051	-133.731	35.5138	-34.2426	-134.203	20.4066	-49.442	-125.325	-0.15688	-61.3805	-160.183	34.4057	-35.8746	-157.245	19.6697	-57.2977	-153.96	-1.73242	-73.6174	-175.281	31.1379	-27.9624	-175.163	14.8327	-52.0575	-174.638	-1.19807	-67.1335	-194.632	24.2992	-15.0946	-195.761	10.9412	-32.5597	-192.404	0.206404	-47.3324	-181.702	51.3433	12.7723	-178.496	58.6405	36.9252	-155.493	60.9346	23.7742	
3	0.025	-126.828	41.9098	32.7479	-117.198	24.5591	17.4637	-109.737	12.6629	-2.05342	-105.016	1.17564	-15.8147	-136.466	33.7084	-33.5597	-129.734	17.0853	-51.8406	-130.769	-1.55746	-60.5001	-157.734	33.4997	-34.7034	-157.184	16.3979	-58.6573	-156.359	-4.63738	-73.689	-174.707	28.6743	-30.6946	-175.793	13.7388	-50.9882	-172.826	1.41726	-64.0351	-190.142	23.8049	-14.0942	-192.243	12.0168	-33.5167	-193.813	0.188026	-48.712	-179.589	48.7881	9.84117	-182.372	56.9223	35.3604	-153.983	59.8907	20.5866	
4	0.0333333	-131.69	40.1299	36.6053	-116.195	22.6203	15.8914	-107.205	10.9402	-0.651599	-103.384	-1.56163	-17.9397	-134.124	34.7237	-30.8943	-131.701	19.2268	-48.7559	-125.879	-2.05669	-61.0295	-155.787	30.7263	-40.2505	-154.232	13.0217	-59.7491	-154.178	-4.57607	-73.1674	-179.242	24.9654	-29.0834	-174.534	11.4217	-52.2362	-173.815	-5.05439	-66.282	-195.528	18.9837	-15.6194	-191.288	10.4193	-31.9166	-194.093	-2.31059	-48.5746	-181.056	48.4856	10.2196	-177.265	56.6082	34.0383	-155.003	57.0462	20.7989	
5	0.0416667	-131.882	38.8722	32.2221	-117.918	22.5268	16.2515	-110.883	10.5035	-4.83746	-104.507	-2.5251	-19.8088	-134.425	34.6237	-30.0341	-134.956	14.5794	-51.1566	-127.315	-3.62525	-60.4821	-160.571	28.7055	-38.8603	-156.185	14.142	-58.6102	-157.02	-9.27658	-71.9236	-180.828	24.0108	-29.3706	-178.217	8.8278	-51.6655	-175.891	-5.90917	-63.5318	-194.676	20.1417	-16.0847	-193.01	11.1065	-30.7413	-194.968	-3.46711	-47.2476	-178.917	48.3617	13.6995	-180.546	54.4371	36.1436	-152.883	56.8608	22.0991	
6	0.05	-130.512	39.2024	32.9887	-116.626	22.3927	15.1881	-113.071	11.1149	-0.890562	-108.386	0.309495	-19.6858	-139.35	33.4262	-34.2115	-132.965	19.7395	-48.8293	-130.716	-3.79856	-59.4202	-162.371	30.1484	-39.1776	-156.756	16.4501	-57.207	-153.9	-12.7547	-69.4924	-177.223	27.6561	-27.6998	-177.265	11.2482	-49.5629	-169.29	-10.2086	-63.5619	-198.212	21.4885	-15.6284	-197.222	11.2064	-35.8401	-197.313	1.40264	-50.9157	-178.637	46.7687	15.1686	-183.172	54.0296	38.719	-157.579	58.0506	24.062	
7	0.0583333	-131.973	41.4484	38.5188	-118.34	25.7869	18.0228	-109.801	17.0804	-5.92558	-105.349	6.45511	-22.4693	-139.221	40.4292	-32.8925	-132.569	20.7321	-51.4511	-132.167	-1.47284	-56.5661	-160.222	35.342	-38.706	-156.088	17.6812	-56.5722	-146.652	-15.1465	-57.3772	-177.147	32.4673	-29.2804	-177.311	12.3403	-49.298	-167.454	-9.65233	-52.9321	-199.524	28.7755	-17.8685	-198.667	22.8578	-33.8962	-199.264	11.7955	-55.8239	-184.919	48.7385	15.8867	-183.984	55.0532	38.0545	-155.742	61.3916	24.8032	
8	0.0666667	-132.46	42.8977	36.3609	-119.127	31.2406	14.8163	-112.73	25.7369	-5.01854	-106.666	17.9883	-27.636	-138.732	49.0688	-30.0176	-133.129	26.7923	-51.4781	-126.687	-0.71503	-46.0868	-158.578	43.8195	-35.6256	-155.275	17.7192	-55.0952	-147.185	-8.14741	-42.2442	-177.824	37.9145	-31.762	-173.418	16.4947	-48.0266	-158.521	-6.52437	-38.7537	-199.008	36.2605	-13.3679	-199.408	34.0708	-33.6901	-202.166	27.0629	-56.1699	-181.744	52.5556	14.8933	-184.606	55.9931	42.0672	-157.078	61.5438	27.7182	
9	0.075	-133.448	44.4799	38.3685	-113.751	36.1923	15.4205	-105.593	33.7013	-3.516	-105.107	28.4548	-24.7482	-135.189	55.6002	-30.3821	-134.572	36.3537	-48.9589	-131.627	7.66969	-36.8602	-154.038	49.7363	-37.5322	-149.161	23.8801	-51.157	-146.561	2.67495	-28.2754	-171.739	45.8811	-33.8266	-171.056	22.1248	-45.9563	-158.942	3.12837	-26.9056	-192.972	47.2206	-13.6898	-200.145	46.4974	-36.7522	-200.642	43.3524	-56.3424	-182.303	58.9522	15.8826	-182.026	60.7266	39.0148	-153.751	65.3823	30.4721	
10	0.0833333	-128.619	47.1929	36.6264	-113.213	40.9327	15.3141	-105.437	40.4743	-7.02977	-101.515	38.1918	-29.9241	-134.301	58.4086	-31.2557	-130.581	36.3821	-45.1419	-133.957	14.3235	-22.3455	-151.62	51.7981	-38.1659	-148.287	25.6709	-44.4504	-150.27	12.1473	-15.0713	-174.319	50.2161	-32.3953	-167.084	25.8595	-41.6863	-157.263	12.9207	-15.3729	-190.584	57.1701	-14.3757	-197.917	60.2353	-35.7574	-200.37	58.9541	-55.2748	-178.223	65.3644	16.6912	-177.308	63.8619	38.6582	-151.56	69.1755	30.4785	
11	0.0916667	-129.246	46.02	37.3725	-107.335	42.4971	14.9849	-102.242	43.9238	-8.48648	-105.92	42.9109	-30.3711	-129.483	59.6324	-32.1112	-129.421	33.6838	-41.0377	-132.943	19.9618	-17.7853	-148.774	54.968	-34.8799	-148.638	24.4293	-38.5593	-146.555	20.7731	-4.61532	-169.481	55.0211	-30.9509	-161.329	30.138	-38.5714	-157.985	19.0943	-12.4308	-187.829	66.2663	-19.475	-193.166	67.3562	-33.4937	-202.251	69.5484	-55.0706	-173.69	71.7739	15.2739	-175.681	67.3753	40.7719	-144.132	69.5025	28.8798	
